<?xml version="1.0" encoding="utf-8"?>
<!-- Generator: Adobe Illustrator 15.0.0, SVG Export Plug-In . SVG Version: 6.00 Build 0)  -->
<!DOCTYPE svg PUBLIC "-//W3C//DTD SVG 1.1//EN" "http://www.w3.org/Graphics/SVG/1.1/DTD/svg11.dtd">
<svg version="1.1" id="Layer_1" xmlns="http://www.w3.org/2000/svg" xmlns:xlink="http://www.w3.org/1999/xlink" x="0px" y="0px"
	 width="108.486px" height="34.602px" viewBox="0 0 108.486 34.602" enable-background="new 0 0 108.486 34.602"
	 xml:space="preserve">
<g>
	<path fill="#767676" d="M7.027,25.398c-0.215-0.341-0.527-0.622-0.938-0.843c-0.41-0.221-0.855-0.331-1.335-0.331
		c-0.518,0-0.985,0.091-1.402,0.275c-0.416,0.182-0.773,0.435-1.069,0.757c-0.297,0.322-0.524,0.701-0.682,1.136
		c-0.158,0.437-0.237,0.906-0.237,1.411c0,0.506,0.079,0.973,0.237,1.402c0.158,0.429,0.381,0.805,0.672,1.127
		c0.29,0.321,0.644,0.574,1.061,0.757c0.416,0.184,0.883,0.274,1.401,0.274c0.569,0,1.048-0.106,1.44-0.321
		c0.391-0.216,0.713-0.492,0.965-0.834l0.967,0.72c-0.379,0.468-0.843,0.84-1.393,1.118c-0.549,0.276-1.209,0.417-1.979,0.417
		c-0.72,0-1.37-0.117-1.951-0.352c-0.581-0.232-1.076-0.559-1.486-0.975c-0.411-0.417-0.729-0.909-0.957-1.478
		C0.114,29.091,0,28.473,0,27.803c0-0.669,0.114-1.288,0.341-1.856c0.228-0.567,0.546-1.06,0.957-1.477
		c0.41-0.417,0.905-0.741,1.486-0.976c0.581-0.233,1.231-0.349,1.951-0.349c0.593,0,1.196,0.129,1.809,0.387
		c0.612,0.259,1.108,0.641,1.486,1.146L7.027,25.398z"/>
	<path fill="#767676" d="M18.921,27.803c0,0.67-0.117,1.288-0.351,1.857c-0.233,0.567-0.558,1.06-0.975,1.477
		c-0.416,0.416-0.916,0.741-1.496,0.976c-0.581,0.232-1.219,0.35-1.913,0.35c-0.682,0-1.314-0.117-1.894-0.35
		c-0.581-0.234-1.08-0.56-1.496-0.976c-0.417-0.417-0.742-0.909-0.976-1.477c-0.233-0.569-0.35-1.188-0.35-1.857
		c0-0.669,0.117-1.288,0.35-1.855c0.234-0.569,0.559-1.061,0.976-1.478c0.416-0.417,0.915-0.742,1.496-0.976
		c0.58-0.233,1.212-0.35,1.894-0.35c0.694,0,1.332,0.117,1.913,0.35c0.58,0.234,1.08,0.559,1.496,0.976
		c0.417,0.417,0.742,0.908,0.975,1.478C18.805,26.515,18.921,27.134,18.921,27.803 M17.558,27.803c0-0.492-0.079-0.956-0.237-1.392
		c-0.158-0.436-0.382-0.814-0.672-1.138c-0.291-0.32-0.644-0.576-1.061-0.766c-0.416-0.19-0.884-0.285-1.401-0.285
		c-0.518,0-0.982,0.095-1.392,0.285c-0.41,0.189-0.761,0.445-1.052,0.766c-0.29,0.323-0.514,0.702-0.672,1.138
		c-0.158,0.436-0.236,0.899-0.236,1.392s0.078,0.956,0.236,1.394c0.158,0.435,0.382,0.813,0.672,1.136
		c0.291,0.322,0.642,0.574,1.052,0.757c0.41,0.184,0.874,0.275,1.392,0.275c0.517,0,0.985-0.092,1.401-0.275
		c0.417-0.183,0.77-0.435,1.061-0.757c0.29-0.323,0.514-0.701,0.672-1.136C17.479,28.759,17.558,28.295,17.558,27.803"/>
	<path fill="#767676" d="M28.979,30.739c-0.379,0.568-0.871,0.998-1.477,1.289c-0.607,0.289-1.232,0.435-1.875,0.435
		c-0.695,0-1.323-0.12-1.885-0.359s-1.041-0.567-1.439-0.984s-0.708-0.91-0.929-1.479c-0.221-0.567-0.331-1.18-0.331-1.837
		c0-0.656,0.11-1.269,0.331-1.837c0.221-0.568,0.531-1.061,0.929-1.478c0.398-0.417,0.877-0.745,1.439-0.985
		c0.562-0.239,1.19-0.359,1.885-0.359c0.643,0,1.268,0.148,1.875,0.445c0.606,0.297,1.098,0.736,1.477,1.316h0.038v-6.988h1.288
		v14.317h-1.288v-1.496H28.979z M22.407,27.803c0,0.492,0.076,0.956,0.227,1.394c0.151,0.435,0.369,0.813,0.654,1.136
		c0.283,0.322,0.634,0.574,1.05,0.757c0.417,0.184,0.891,0.275,1.421,0.275c0.493,0,0.947-0.092,1.364-0.275
		c0.417-0.183,0.777-0.432,1.079-0.748c0.303-0.315,0.54-0.691,0.711-1.127c0.17-0.435,0.255-0.905,0.255-1.411
		c0-0.505-0.085-0.975-0.255-1.411c-0.171-0.436-0.408-0.813-0.711-1.136c-0.302-0.322-0.662-0.575-1.079-0.758
		c-0.417-0.184-0.871-0.275-1.364-0.275c-0.53,0-1.004,0.095-1.421,0.285c-0.416,0.189-0.767,0.445-1.05,0.766
		c-0.285,0.323-0.503,0.702-0.654,1.138C22.482,26.847,22.407,27.311,22.407,27.803"/>
	<path fill="#767676" d="M41.819,27.539v0.284c0,0.101-0.006,0.208-0.018,0.321h-7.35c0.013,0.442,0.101,0.859,0.266,1.25
		c0.164,0.393,0.391,0.733,0.682,1.023c0.29,0.291,0.631,0.521,1.022,0.69c0.392,0.172,0.815,0.257,1.27,0.257
		c0.669,0,1.246-0.155,1.732-0.465c0.486-0.309,0.855-0.666,1.108-1.069l0.966,0.757c-0.53,0.669-1.114,1.15-1.752,1.44
		c-0.637,0.289-1.322,0.435-2.054,0.435c-0.657,0-1.267-0.117-1.828-0.35c-0.562-0.234-1.045-0.56-1.449-0.976
		c-0.405-0.417-0.723-0.909-0.957-1.477c-0.233-0.569-0.35-1.188-0.35-1.857c0-0.669,0.114-1.288,0.341-1.855
		c0.227-0.568,0.543-1.061,0.946-1.478c0.405-0.417,0.878-0.741,1.422-0.976c0.542-0.233,1.129-0.35,1.761-0.35
		c0.694,0,1.307,0.117,1.837,0.35c0.53,0.235,0.972,0.55,1.325,0.947c0.354,0.398,0.622,0.862,0.806,1.393
		C41.727,26.364,41.819,26.932,41.819,27.539 M40.512,27.122c-0.038-0.833-0.306-1.524-0.805-2.074
		c-0.498-0.549-1.209-0.824-2.13-0.824c-0.43,0-0.827,0.08-1.193,0.238c-0.367,0.158-0.689,0.372-0.966,0.643
		c-0.278,0.272-0.499,0.581-0.664,0.929c-0.164,0.348-0.259,0.711-0.283,1.089H40.512z"/>
	<rect x="44.538" y="33.656" fill="#767676" width="9.47" height="0.946"/>
	<polygon fill="#767676" points="48.192,32.205 47.916,31.299 46.606,31.698 44.402,24.45 45.712,24.051 45.437,23.145 
		44.126,23.543 44.126,23.543 43.744,23.66 43.673,23.681 43.673,23.681 43.221,23.819 45.976,32.879 46.853,32.612 	"/>
	<polygon fill="#767676" points="55.325,23.819 54.419,23.543 54.419,23.543 53.108,23.145 52.833,24.051 54.143,24.45 
		51.939,31.698 50.628,31.299 50.354,32.206 51.664,32.604 51.664,32.604 51.732,32.625 52.117,32.742 52.117,32.742 52.57,32.878 	
		"/>
	<polygon fill="#1A5DAD" points="57.425,18.826 60.588,18.826 66.818,28.864 66.856,28.864 66.856,18.826 69.243,18.826 
		69.243,32.236 66.213,32.236 59.85,21.876 59.812,21.876 59.812,32.236 57.425,32.236 	"/>
	<path fill="#1A5DAD" d="M76.402,18.826h2.064l5.776,13.409h-2.728l-1.25-3.067h-5.814l-1.212,3.067h-2.671L76.402,18.826z
		 M79.433,27.122l-2.064-5.454l-2.103,5.454H79.433z"/>
	<path fill="#1A5DAD" d="M92.407,21.629c-0.253-0.328-0.61-0.603-1.07-0.824c-0.461-0.22-0.925-0.331-1.393-0.331
		c-0.277,0-0.556,0.035-0.833,0.104c-0.278,0.07-0.53,0.177-0.758,0.322c-0.227,0.146-0.414,0.335-0.559,0.569
		c-0.146,0.233-0.218,0.514-0.218,0.842c0,0.303,0.063,0.562,0.189,0.777c0.125,0.215,0.3,0.398,0.521,0.549
		c0.22,0.151,0.487,0.284,0.804,0.398c0.316,0.113,0.663,0.228,1.042,0.341c0.43,0.139,0.874,0.296,1.335,0.474
		c0.461,0.177,0.884,0.411,1.27,0.701c0.386,0.291,0.7,0.656,0.947,1.098c0.245,0.443,0.369,0.991,0.369,1.647
		c0,0.721-0.133,1.349-0.397,1.886c-0.266,0.536-0.619,0.981-1.061,1.335c-0.442,0.354-0.961,0.619-1.554,0.795
		c-0.593,0.177-1.218,0.265-1.875,0.265c-0.871,0-1.724-0.161-2.557-0.481c-0.834-0.322-1.516-0.8-2.047-1.431l1.705-1.591
		c0.328,0.455,0.769,0.814,1.316,1.08c0.55,0.265,1.089,0.397,1.62,0.397c0.277,0,0.561-0.034,0.852-0.104
		c0.291-0.069,0.553-0.186,0.786-0.35c0.234-0.165,0.423-0.37,0.569-0.616c0.145-0.246,0.217-0.552,0.217-0.919
		c0-0.354-0.082-0.646-0.246-0.881c-0.164-0.233-0.385-0.436-0.662-0.605c-0.279-0.171-0.606-0.32-0.985-0.445
		c-0.38-0.127-0.776-0.259-1.193-0.398c-0.404-0.125-0.809-0.277-1.212-0.454c-0.404-0.177-0.768-0.41-1.089-0.701
		c-0.322-0.29-0.584-0.646-0.786-1.069c-0.202-0.424-0.304-0.951-0.304-1.582c0-0.682,0.143-1.269,0.427-1.762
		c0.284-0.492,0.656-0.899,1.116-1.221c0.462-0.322,0.985-0.562,1.573-0.72c0.587-0.158,1.184-0.237,1.789-0.237
		c0.683,0,1.373,0.121,2.075,0.36c0.7,0.24,1.309,0.6,1.827,1.08L92.407,21.629z"/>
	<path fill="#1A5DAD" d="M100.646,18.826h2.064l5.776,13.409h-2.728l-1.25-3.067h-5.815l-1.211,3.067h-2.671L100.646,18.826z
		 M103.676,27.122l-2.065-5.454l-2.102,5.454H103.676z"/>
	<path fill="#EE293D" d="M46.769,23.667c-0.22-1.221,1.424-2.155,2.74-1.996c0.778,0.093,1.446,0.513,1.841,1.075
		c0.311,0.442,0.263,0.852,0.127,1.322c-0.468,1.618-1.124,3.204-1.757,4.781c-0.179,0.444-0.359,0.89-0.544,1.332
		c-0.721-1.66-1.414-3.335-1.988-5.035C47.023,24.66,46.858,24.167,46.769,23.667"/>
	<path fill="#1A5DAD" d="M46.65,5.508c-0.095,0.016-0.189,0.032-0.284,0.063c0.079-0.663,0.174-1.247,0.316-1.72
		C47.014,2.746,49.16,0,49.16,0s2.163,2.746,2.478,3.851c0.143,0.473,0.237,1.057,0.316,1.72c-0.095-0.031-0.189-0.047-0.284-0.063
		c-0.821-0.174-1.657-0.253-2.51-0.253C48.308,5.255,47.472,5.334,46.65,5.508"/>
	<path fill="#1A5DAD" d="M51.67,21.023c-0.821-0.174-1.657-0.253-2.51-0.253c-0.852,0-1.688,0.079-2.509,0.253
		c-0.142-1.673-0.805-9.912-0.363-14.789c0.11-0.031,0.237-0.063,0.363-0.079c0.821-0.173,1.657-0.252,2.509-0.252
		c0.853,0,1.689,0.079,2.51,0.252c0.11,0.016,0.237,0.048,0.363,0.079C52.475,11.111,51.812,19.35,51.67,21.023"/>
	<path fill="#1A5DAD" d="M45.969,21.147c-0.568,0.126-1.105,0.3-1.641,0.505c-0.837-2.21,1.31-5.145,1.31-5.145L45.969,21.147z"/>
	<path fill="#1A5DAD" d="M53.985,21.653c-0.521-0.205-1.073-0.379-1.626-0.505l0.316-4.64
		C52.675,16.508,54.821,19.443,53.985,21.653"/>
</g>
</svg>
